<mxfile host="app.diagrams.net" modified="2022-04-21T13:06:06.174Z" agent="5.0 (Windows)" etag="WqXa9n9PTiG0pn7U8uop" version="17.4.6" type="github">
  <diagram id="3yTFBYGLncivDJRvdzMF" name="Page-1">
    <mxGraphModel dx="1447" dy="733" grid="1" gridSize="10" guides="1" tooltips="1" connect="1" arrows="1" fold="1" page="1" pageScale="1" pageWidth="1200" pageHeight="1600" math="0" shadow="0">
      <root>
        <mxCell id="0" />
        <mxCell id="1" parent="0" />
        <mxCell id="Wz8lpyT-Ac9rhzFCjMwo-1" value="" style="rounded=0;whiteSpace=wrap;html=1;fontFamily=Verdana;" parent="1" vertex="1">
          <mxGeometry x="390" y="390" width="400" height="150" as="geometry" />
        </mxCell>
        <mxCell id="Wz8lpyT-Ac9rhzFCjMwo-14" value="" style="rounded=0;whiteSpace=wrap;html=1;fontFamily=Verdana;" parent="1" vertex="1">
          <mxGeometry x="1408" y="385" width="592" height="315" as="geometry" />
        </mxCell>
        <mxCell id="Wz8lpyT-Ac9rhzFCjMwo-2" style="edgeStyle=orthogonalEdgeStyle;rounded=0;orthogonalLoop=1;jettySize=auto;html=1;exitX=0;exitY=0.5;exitDx=0;exitDy=0;fontFamily=Verdana;entryX=0;entryY=0.5;entryDx=0;entryDy=0;" parent="1" source="Wz8lpyT-Ac9rhzFCjMwo-7" target="Wz8lpyT-Ac9rhzFCjMwo-17" edge="1">
          <mxGeometry relative="1" as="geometry">
            <mxPoint x="538" y="240" as="targetPoint" />
            <Array as="points">
              <mxPoint x="878" y="460" />
            </Array>
          </mxGeometry>
        </mxCell>
        <mxCell id="Wz8lpyT-Ac9rhzFCjMwo-3" value="LANDING" style="text;html=1;align=center;verticalAlign=middle;resizable=0;points=[];autosize=1;strokeColor=none;fillColor=none;fontFamily=Verdana;" parent="1" vertex="1">
          <mxGeometry x="592" y="400" width="70" height="20" as="geometry" />
        </mxCell>
        <mxCell id="Wz8lpyT-Ac9rhzFCjMwo-4" value="&lt;div&gt;LOGIN Form&lt;br&gt;&lt;/div&gt;&lt;div&gt;[ field: username&lt;/div&gt;&lt;div&gt;field: password ]&lt;br&gt;&lt;/div&gt;" style="rounded=1;whiteSpace=wrap;html=1;fontFamily=Verdana;" parent="1" vertex="1">
          <mxGeometry x="601" y="440" width="130" height="70" as="geometry" />
        </mxCell>
        <mxCell id="Wz8lpyT-Ac9rhzFCjMwo-7" value="" style="ellipse;whiteSpace=wrap;html=1;aspect=fixed;fontFamily=Verdana;" parent="1" vertex="1">
          <mxGeometry x="721" y="450" width="20" height="20" as="geometry" />
        </mxCell>
        <mxCell id="Wz8lpyT-Ac9rhzFCjMwo-15" value="HOME" style="text;html=1;align=center;verticalAlign=middle;resizable=0;points=[];autosize=1;strokeColor=none;fillColor=none;fontFamily=Verdana;" parent="1" vertex="1">
          <mxGeometry x="1422" y="395" width="50" height="20" as="geometry" />
        </mxCell>
        <mxCell id="Wz8lpyT-Ac9rhzFCjMwo-17" value="&lt;div&gt;CHECK&lt;/div&gt;&lt;div&gt;EMPLOYEE&lt;/div&gt;&lt;div&gt;LOGIN&lt;br&gt;&lt;/div&gt;" style="shape=parallelogram;perimeter=parallelogramPerimeter;whiteSpace=wrap;html=1;fixedSize=1;fontFamily=Verdana;" parent="1" vertex="1">
          <mxGeometry x="874" y="430" width="160" height="60" as="geometry" />
        </mxCell>
        <mxCell id="Wz8lpyT-Ac9rhzFCjMwo-18" style="edgeStyle=orthogonalEdgeStyle;rounded=0;orthogonalLoop=1;jettySize=auto;html=1;exitX=0.5;exitY=1;exitDx=0;exitDy=0;entryX=0.75;entryY=1;entryDx=0;entryDy=0;fontFamily=Verdana;" parent="1" source="Wz8lpyT-Ac9rhzFCjMwo-19" target="Wz8lpyT-Ac9rhzFCjMwo-1" edge="1">
          <mxGeometry relative="1" as="geometry">
            <Array as="points">
              <mxPoint x="949" y="580" />
              <mxPoint x="690" y="580" />
            </Array>
          </mxGeometry>
        </mxCell>
        <mxCell id="Wz8lpyT-Ac9rhzFCjMwo-19" value="" style="ellipse;whiteSpace=wrap;html=1;aspect=fixed;fontFamily=Verdana;" parent="1" vertex="1">
          <mxGeometry x="939" y="480" width="20" height="20" as="geometry" />
        </mxCell>
        <mxCell id="Wz8lpyT-Ac9rhzFCjMwo-20" style="edgeStyle=orthogonalEdgeStyle;rounded=0;orthogonalLoop=1;jettySize=auto;html=1;exitX=1;exitY=0.5;exitDx=0;exitDy=0;fontFamily=Verdana;endArrow=none;endFill=0;" parent="1" source="Wz8lpyT-Ac9rhzFCjMwo-21" edge="1">
          <mxGeometry relative="1" as="geometry">
            <mxPoint x="1220" y="550" as="targetPoint" />
          </mxGeometry>
        </mxCell>
        <mxCell id="Wz8lpyT-Ac9rhzFCjMwo-21" value="" style="ellipse;whiteSpace=wrap;html=1;aspect=fixed;fontFamily=Verdana;" parent="1" vertex="1">
          <mxGeometry x="1014" y="450" width="20" height="20" as="geometry" />
        </mxCell>
        <mxCell id="Wz8lpyT-Ac9rhzFCjMwo-22" style="edgeStyle=orthogonalEdgeStyle;rounded=0;orthogonalLoop=1;jettySize=auto;html=1;entryX=0;entryY=0.5;entryDx=0;entryDy=0;fontFamily=Verdana;" parent="1" target="Wz8lpyT-Ac9rhzFCjMwo-14" edge="1">
          <mxGeometry relative="1" as="geometry">
            <mxPoint x="1220" y="542" as="sourcePoint" />
            <Array as="points">
              <mxPoint x="1270" y="542" />
              <mxPoint x="1339" y="542" />
            </Array>
          </mxGeometry>
        </mxCell>
        <mxCell id="Wz8lpyT-Ac9rhzFCjMwo-24" value="Employeeâ†’ Session" style="text;html=1;align=center;verticalAlign=middle;resizable=0;points=[];autosize=1;strokeColor=none;fillColor=none;fontFamily=Verdana;" parent="1" vertex="1">
          <mxGeometry x="1062" y="440" width="140" height="20" as="geometry" />
        </mxCell>
        <mxCell id="Wz8lpyT-Ac9rhzFCjMwo-25" value="&lt;i&gt;Success&lt;/i&gt;" style="text;html=1;align=center;verticalAlign=middle;resizable=0;points=[];autosize=1;strokeColor=none;fillColor=none;fontFamily=Verdana;" parent="1" vertex="1">
          <mxGeometry x="1014" y="470" width="70" height="20" as="geometry" />
        </mxCell>
        <mxCell id="Wz8lpyT-Ac9rhzFCjMwo-26" value="Failure" style="text;html=1;align=center;verticalAlign=middle;resizable=0;points=[];autosize=1;strokeColor=none;fillColor=none;fontFamily=Verdana;fontStyle=2" parent="1" vertex="1">
          <mxGeometry x="882" y="492" width="60" height="20" as="geometry" />
        </mxCell>
        <mxCell id="Wz8lpyT-Ac9rhzFCjMwo-27" value="Submit" style="text;html=1;align=center;verticalAlign=middle;resizable=0;points=[];autosize=1;strokeColor=none;fillColor=none;fontFamily=Verdana;fontStyle=2" parent="1" vertex="1">
          <mxGeometry x="732" y="438" width="60" height="20" as="geometry" />
        </mxCell>
        <mxCell id="Wz8lpyT-Ac9rhzFCjMwo-30" style="edgeStyle=orthogonalEdgeStyle;rounded=0;orthogonalLoop=1;jettySize=auto;html=1;exitX=0.5;exitY=0;exitDx=0;exitDy=0;fontFamily=Verdana;entryX=0;entryY=0.5;entryDx=0;entryDy=0;" parent="1" source="Wz8lpyT-Ac9rhzFCjMwo-31" target="0TKePO1vBAwYK1uOQbZ0-16" edge="1">
          <mxGeometry relative="1" as="geometry">
            <Array as="points">
              <mxPoint x="1427" y="306" />
              <mxPoint x="1455" y="306" />
            </Array>
            <mxPoint x="1420" y="280" as="targetPoint" />
          </mxGeometry>
        </mxCell>
        <mxCell id="Wz8lpyT-Ac9rhzFCjMwo-31" value="" style="ellipse;whiteSpace=wrap;html=1;aspect=fixed;fontFamily=Verdana;" parent="1" vertex="1">
          <mxGeometry x="1417" y="375" width="20" height="20" as="geometry" />
        </mxCell>
        <mxCell id="Wz8lpyT-Ac9rhzFCjMwo-32" value="Load" style="text;html=1;align=center;verticalAlign=middle;resizable=0;points=[];autosize=1;strokeColor=none;fillColor=none;fontFamily=Verdana;fontStyle=2" parent="1" vertex="1">
          <mxGeometry x="1378" y="361" width="50" height="20" as="geometry" />
        </mxCell>
        <mxCell id="Wz8lpyT-Ac9rhzFCjMwo-33" value="&lt;div&gt;Optional product creation Form&lt;/div&gt;&lt;div&gt;[ field: name&lt;/div&gt;&lt;div&gt;field: monthly fee ]&lt;br&gt;&lt;/div&gt;" style="rounded=1;whiteSpace=wrap;html=1;fontFamily=Verdana;" parent="1" vertex="1">
          <mxGeometry x="1720" y="423" width="220" height="80" as="geometry" />
        </mxCell>
        <mxCell id="Wz8lpyT-Ac9rhzFCjMwo-34" value="&lt;div&gt;Service package creation Form&lt;/div&gt;&lt;div&gt;[ field: name&lt;/div&gt;&lt;div&gt;[field: services] &lt;br&gt;&lt;/div&gt;&lt;div&gt;[field: validity periods]&lt;/div&gt;&lt;div&gt;field: optional products ]&lt;br&gt;&lt;/div&gt;" style="rounded=1;whiteSpace=wrap;html=1;fontFamily=Verdana;" parent="1" vertex="1">
          <mxGeometry x="1719.5" y="532" width="220" height="80" as="geometry" />
        </mxCell>
        <mxCell id="Wz8lpyT-Ac9rhzFCjMwo-35" value="REPORT Button" style="rounded=1;whiteSpace=wrap;html=1;fontFamily=Verdana;" parent="1" vertex="1">
          <mxGeometry x="1650" y="634.5" width="130" height="50" as="geometry" />
        </mxCell>
        <mxCell id="Wz8lpyT-Ac9rhzFCjMwo-36" style="edgeStyle=orthogonalEdgeStyle;rounded=0;orthogonalLoop=1;jettySize=auto;html=1;exitX=1;exitY=0.5;exitDx=0;exitDy=0;entryX=0.75;entryY=0;entryDx=0;entryDy=0;fontFamily=Verdana;" parent="1" source="Wz8lpyT-Ac9rhzFCjMwo-37" target="Wz8lpyT-Ac9rhzFCjMwo-63" edge="1">
          <mxGeometry relative="1" as="geometry">
            <mxPoint x="1330" y="820" as="targetPoint" />
          </mxGeometry>
        </mxCell>
        <mxCell id="Wz8lpyT-Ac9rhzFCjMwo-37" value="" style="ellipse;whiteSpace=wrap;html=1;aspect=fixed;fontFamily=Verdana;" parent="1" vertex="1">
          <mxGeometry x="1770" y="644.5" width="20" height="20" as="geometry" />
        </mxCell>
        <mxCell id="Wz8lpyT-Ac9rhzFCjMwo-38" value="LOGOUT Button" style="rounded=1;whiteSpace=wrap;html=1;fontFamily=Verdana;" parent="1" vertex="1">
          <mxGeometry x="1452.5" y="634.5" width="130" height="50" as="geometry" />
        </mxCell>
        <mxCell id="Wz8lpyT-Ac9rhzFCjMwo-39" style="edgeStyle=orthogonalEdgeStyle;rounded=0;orthogonalLoop=1;jettySize=auto;html=1;exitX=0;exitY=0.5;exitDx=0;exitDy=0;entryX=1;entryY=0.5;entryDx=0;entryDy=0;fontFamily=Verdana;" parent="1" source="Wz8lpyT-Ac9rhzFCjMwo-40" target="Wz8lpyT-Ac9rhzFCjMwo-42" edge="1">
          <mxGeometry relative="1" as="geometry">
            <Array as="points">
              <mxPoint x="1130" y="655" />
              <mxPoint x="1102" y="655" />
            </Array>
          </mxGeometry>
        </mxCell>
        <mxCell id="Wz8lpyT-Ac9rhzFCjMwo-40" value="" style="ellipse;whiteSpace=wrap;html=1;aspect=fixed;fontFamily=Verdana;" parent="1" vertex="1">
          <mxGeometry x="1441.5" y="644.5" width="20" height="20" as="geometry" />
        </mxCell>
        <mxCell id="Wz8lpyT-Ac9rhzFCjMwo-41" style="edgeStyle=orthogonalEdgeStyle;rounded=0;orthogonalLoop=1;jettySize=auto;html=1;exitX=0;exitY=0.5;exitDx=0;exitDy=0;entryX=0.5;entryY=1;entryDx=0;entryDy=0;fontFamily=Verdana;" parent="1" source="Wz8lpyT-Ac9rhzFCjMwo-42" target="Wz8lpyT-Ac9rhzFCjMwo-1" edge="1">
          <mxGeometry relative="1" as="geometry" />
        </mxCell>
        <mxCell id="Wz8lpyT-Ac9rhzFCjMwo-42" value="LOGOUT" style="shape=parallelogram;perimeter=parallelogramPerimeter;whiteSpace=wrap;html=1;fixedSize=1;fontFamily=Verdana;" parent="1" vertex="1">
          <mxGeometry x="982" y="629.5" width="130" height="50" as="geometry" />
        </mxCell>
        <mxCell id="Wz8lpyT-Ac9rhzFCjMwo-43" value="Clear Session" style="text;html=1;align=center;verticalAlign=middle;resizable=0;points=[];autosize=1;strokeColor=none;fillColor=none;fontFamily=Verdana;" parent="1" vertex="1">
          <mxGeometry x="815" y="634.5" width="100" height="20" as="geometry" />
        </mxCell>
        <mxCell id="Wz8lpyT-Ac9rhzFCjMwo-50" style="edgeStyle=orthogonalEdgeStyle;rounded=0;orthogonalLoop=1;jettySize=auto;html=1;exitX=1;exitY=0.5;exitDx=0;exitDy=0;entryX=0;entryY=0.5;entryDx=0;entryDy=0;fontFamily=Verdana;" parent="1" source="Wz8lpyT-Ac9rhzFCjMwo-51" target="Wz8lpyT-Ac9rhzFCjMwo-34" edge="1">
          <mxGeometry relative="1" as="geometry" />
        </mxCell>
        <mxCell id="Wz8lpyT-Ac9rhzFCjMwo-51" value="LOAD OPTIONAL PRODUCTS" style="shape=parallelogram;perimeter=parallelogramPerimeter;whiteSpace=wrap;html=1;fixedSize=1;fontFamily=Verdana;" parent="1" vertex="1">
          <mxGeometry x="1550" y="547" width="145" height="50" as="geometry" />
        </mxCell>
        <mxCell id="Wz8lpyT-Ac9rhzFCjMwo-54" style="edgeStyle=orthogonalEdgeStyle;rounded=0;orthogonalLoop=1;jettySize=auto;html=1;exitX=1;exitY=0.5;exitDx=0;exitDy=0;entryX=0.75;entryY=0;entryDx=0;entryDy=0;fontFamily=Verdana;" parent="1" source="Wz8lpyT-Ac9rhzFCjMwo-55" target="Wz8lpyT-Ac9rhzFCjMwo-51" edge="1">
          <mxGeometry relative="1" as="geometry">
            <Array as="points">
              <mxPoint x="2040" y="448" />
              <mxPoint x="2040" y="360" />
              <mxPoint x="1659" y="360" />
              <mxPoint x="1659" y="547" />
            </Array>
          </mxGeometry>
        </mxCell>
        <mxCell id="Wz8lpyT-Ac9rhzFCjMwo-55" value="" style="ellipse;whiteSpace=wrap;html=1;aspect=fixed;fontFamily=Verdana;" parent="1" vertex="1">
          <mxGeometry x="1930" y="438" width="20" height="20" as="geometry" />
        </mxCell>
        <mxCell id="Wz8lpyT-Ac9rhzFCjMwo-176" style="edgeStyle=orthogonalEdgeStyle;rounded=0;orthogonalLoop=1;jettySize=auto;html=1;exitX=1;exitY=0.5;exitDx=0;exitDy=0;entryX=1;entryY=0.5;entryDx=0;entryDy=0;fontFamily=Verdana;" parent="1" source="Wz8lpyT-Ac9rhzFCjMwo-56" target="Wz8lpyT-Ac9rhzFCjMwo-14" edge="1">
          <mxGeometry relative="1" as="geometry">
            <Array as="points">
              <mxPoint x="2040" y="557" />
              <mxPoint x="2040" y="543" />
              <mxPoint x="2000" y="543" />
            </Array>
          </mxGeometry>
        </mxCell>
        <mxCell id="Wz8lpyT-Ac9rhzFCjMwo-56" value="" style="ellipse;whiteSpace=wrap;html=1;aspect=fixed;fontFamily=Verdana;" parent="1" vertex="1">
          <mxGeometry x="1929.5" y="547" width="20" height="20" as="geometry" />
        </mxCell>
        <mxCell id="Wz8lpyT-Ac9rhzFCjMwo-57" value="Click" style="text;html=1;align=center;verticalAlign=middle;resizable=0;points=[];autosize=1;strokeColor=none;fillColor=none;fontFamily=Verdana;fontStyle=2" parent="1" vertex="1">
          <mxGeometry x="1774.5" y="626.5" width="50" height="20" as="geometry" />
        </mxCell>
        <mxCell id="Wz8lpyT-Ac9rhzFCjMwo-58" value="Click" style="text;html=1;align=center;verticalAlign=middle;resizable=0;points=[];autosize=1;strokeColor=none;fillColor=none;fontFamily=Verdana;fontStyle=2" parent="1" vertex="1">
          <mxGeometry x="1408.5" y="625.5" width="50" height="20" as="geometry" />
        </mxCell>
        <mxCell id="Wz8lpyT-Ac9rhzFCjMwo-59" value="Submit" style="text;html=1;align=center;verticalAlign=middle;resizable=0;points=[];autosize=1;strokeColor=none;fillColor=none;fontFamily=Verdana;fontStyle=2" parent="1" vertex="1">
          <mxGeometry x="1936.5" y="530" width="60" height="20" as="geometry" />
        </mxCell>
        <mxCell id="Wz8lpyT-Ac9rhzFCjMwo-60" value="Submit" style="text;html=1;align=center;verticalAlign=middle;resizable=0;points=[];autosize=1;strokeColor=none;fillColor=none;fontFamily=Verdana;fontStyle=2" parent="1" vertex="1">
          <mxGeometry x="1937" y="420" width="60" height="20" as="geometry" />
        </mxCell>
        <mxCell id="Wz8lpyT-Ac9rhzFCjMwo-63" value="" style="rounded=0;whiteSpace=wrap;html=1;fontFamily=Verdana;" parent="1" vertex="1">
          <mxGeometry x="940" y="1050" width="520" height="260" as="geometry" />
        </mxCell>
        <mxCell id="Wz8lpyT-Ac9rhzFCjMwo-64" value="SALESREPORT" style="text;html=1;align=center;verticalAlign=middle;resizable=0;points=[];autosize=1;strokeColor=none;fillColor=none;fontFamily=Verdana;" parent="1" vertex="1">
          <mxGeometry x="939" y="1062" width="110" height="20" as="geometry" />
        </mxCell>
        <mxCell id="Wz8lpyT-Ac9rhzFCjMwo-70" value="HOME Button" style="rounded=1;whiteSpace=wrap;html=1;fontFamily=Verdana;" parent="1" vertex="1">
          <mxGeometry x="985" y="1174" width="130" height="50" as="geometry" />
        </mxCell>
        <mxCell id="Wz8lpyT-Ac9rhzFCjMwo-71" value="LOGOUT Button" style="rounded=1;whiteSpace=wrap;html=1;fontFamily=Verdana;" parent="1" vertex="1">
          <mxGeometry x="985" y="1242" width="130" height="50" as="geometry" />
        </mxCell>
        <mxCell id="Wz8lpyT-Ac9rhzFCjMwo-184" style="edgeStyle=orthogonalEdgeStyle;rounded=0;orthogonalLoop=1;jettySize=auto;html=1;exitX=0;exitY=0.5;exitDx=0;exitDy=0;fontFamily=Verdana;endArrow=none;endFill=0;" parent="1" source="Wz8lpyT-Ac9rhzFCjMwo-73" edge="1">
          <mxGeometry relative="1" as="geometry">
            <Array as="points">
              <mxPoint x="890" y="1194" />
              <mxPoint x="890" y="900" />
              <mxPoint x="1220" y="900" />
              <mxPoint x="1220" y="540" />
            </Array>
            <mxPoint x="1220" y="540" as="targetPoint" />
          </mxGeometry>
        </mxCell>
        <mxCell id="Wz8lpyT-Ac9rhzFCjMwo-73" value="" style="ellipse;whiteSpace=wrap;html=1;aspect=fixed;fontFamily=Verdana;" parent="1" vertex="1">
          <mxGeometry x="972.5" y="1184" width="20" height="20" as="geometry" />
        </mxCell>
        <mxCell id="Wz8lpyT-Ac9rhzFCjMwo-74" value="Click" style="text;html=1;align=center;verticalAlign=middle;resizable=0;points=[];autosize=1;strokeColor=none;fillColor=none;fontFamily=Verdana;fontStyle=2" parent="1" vertex="1">
          <mxGeometry x="942" y="1233" width="50" height="20" as="geometry" />
        </mxCell>
        <mxCell id="0TKePO1vBAwYK1uOQbZ0-25" style="edgeStyle=orthogonalEdgeStyle;rounded=0;orthogonalLoop=1;jettySize=auto;html=1;exitX=0.5;exitY=0;exitDx=0;exitDy=0;endArrow=classic;endFill=1;entryX=0;entryY=0.5;entryDx=0;entryDy=0;" edge="1" parent="1" source="Wz8lpyT-Ac9rhzFCjMwo-76" target="0TKePO1vBAwYK1uOQbZ0-23">
          <mxGeometry relative="1" as="geometry">
            <mxPoint x="1020" y="980" as="targetPoint" />
            <Array as="points">
              <mxPoint x="959" y="1000" />
            </Array>
          </mxGeometry>
        </mxCell>
        <mxCell id="Wz8lpyT-Ac9rhzFCjMwo-76" value="" style="ellipse;whiteSpace=wrap;html=1;aspect=fixed;fontFamily=Verdana;" parent="1" vertex="1">
          <mxGeometry x="949" y="1040" width="20" height="20" as="geometry" />
        </mxCell>
        <mxCell id="Wz8lpyT-Ac9rhzFCjMwo-77" value="Load" style="text;html=1;align=center;verticalAlign=middle;resizable=0;points=[];autosize=1;strokeColor=none;fillColor=none;fontFamily=Verdana;fontStyle=2" parent="1" vertex="1">
          <mxGeometry x="910" y="1026" width="50" height="20" as="geometry" />
        </mxCell>
        <mxCell id="Wz8lpyT-Ac9rhzFCjMwo-183" style="edgeStyle=orthogonalEdgeStyle;rounded=0;orthogonalLoop=1;jettySize=auto;html=1;exitX=0;exitY=0.5;exitDx=0;exitDy=0;entryX=0.5;entryY=1;entryDx=0;entryDy=0;fontFamily=Verdana;" parent="1" source="Wz8lpyT-Ac9rhzFCjMwo-83" target="Wz8lpyT-Ac9rhzFCjMwo-42" edge="1">
          <mxGeometry relative="1" as="geometry">
            <Array as="points">
              <mxPoint x="830" y="1263" />
              <mxPoint x="830" y="840" />
              <mxPoint x="1047" y="840" />
            </Array>
          </mxGeometry>
        </mxCell>
        <mxCell id="Wz8lpyT-Ac9rhzFCjMwo-83" value="" style="ellipse;whiteSpace=wrap;html=1;aspect=fixed;fontFamily=Verdana;" parent="1" vertex="1">
          <mxGeometry x="972.5" y="1253" width="20" height="20" as="geometry" />
        </mxCell>
        <mxCell id="Wz8lpyT-Ac9rhzFCjMwo-84" value="Click" style="text;html=1;align=center;verticalAlign=middle;resizable=0;points=[];autosize=1;strokeColor=none;fillColor=none;fontFamily=Verdana;fontStyle=2" parent="1" vertex="1">
          <mxGeometry x="942" y="1164" width="50" height="20" as="geometry" />
        </mxCell>
        <mxCell id="Wz8lpyT-Ac9rhzFCjMwo-85" value="&lt;div&gt;Sales report summary&lt;br&gt;&lt;/div&gt;&lt;div&gt;[ aggregated information about sales ]&lt;/div&gt;" style="rounded=1;whiteSpace=wrap;html=1;fontFamily=Verdana;" parent="1" vertex="1">
          <mxGeometry x="1137" y="1204" width="291" height="49" as="geometry" />
        </mxCell>
        <mxCell id="Wz8lpyT-Ac9rhzFCjMwo-89" style="edgeStyle=orthogonalEdgeStyle;rounded=0;orthogonalLoop=1;jettySize=auto;html=1;exitX=0.5;exitY=1;exitDx=0;exitDy=0;entryX=0.5;entryY=0;entryDx=0;entryDy=0;fontFamily=Verdana;endArrow=classic;endFill=1;" parent="1" source="Wz8lpyT-Ac9rhzFCjMwo-90" target="Wz8lpyT-Ac9rhzFCjMwo-85" edge="1">
          <mxGeometry relative="1" as="geometry" />
        </mxCell>
        <mxCell id="Wz8lpyT-Ac9rhzFCjMwo-90" value="&lt;div&gt;LOAD SALES REPORT&lt;/div&gt;" style="shape=parallelogram;perimeter=parallelogramPerimeter;whiteSpace=wrap;html=1;fixedSize=1;fontFamily=Verdana;" parent="1" vertex="1">
          <mxGeometry x="1192" y="1082" width="180" height="50" as="geometry" />
        </mxCell>
        <mxCell id="Wz8lpyT-Ac9rhzFCjMwo-136" value="Session.Employee" style="whiteSpace=wrap;html=1;fontFamily=Verdana;dashed=1;" parent="1" vertex="1">
          <mxGeometry x="1831" y="300" width="120" height="30" as="geometry" />
        </mxCell>
        <mxCell id="Wz8lpyT-Ac9rhzFCjMwo-137" value="" style="endArrow=none;html=1;rounded=0;fontFamily=Verdana;exitX=0.5;exitY=1;exitDx=0;exitDy=0;dashed=1;" parent="1" source="Wz8lpyT-Ac9rhzFCjMwo-136" edge="1">
          <mxGeometry width="50" height="50" relative="1" as="geometry">
            <mxPoint x="2008.999999999999" y="215" as="sourcePoint" />
            <mxPoint x="1890.999999999999" y="385" as="targetPoint" />
            <Array as="points" />
          </mxGeometry>
        </mxCell>
        <mxCell id="Wz8lpyT-Ac9rhzFCjMwo-141" value="Session.Employee" style="whiteSpace=wrap;html=1;fontFamily=Verdana;dashed=1;" parent="1" vertex="1">
          <mxGeometry x="1460" y="994.5" width="130" height="30" as="geometry" />
        </mxCell>
        <mxCell id="Wz8lpyT-Ac9rhzFCjMwo-142" value="" style="endArrow=none;html=1;rounded=0;fontFamily=Verdana;dashed=1;exitX=0.5;exitY=1;exitDx=0;exitDy=0;" parent="1" source="Wz8lpyT-Ac9rhzFCjMwo-141" edge="1">
          <mxGeometry width="50" height="50" relative="1" as="geometry">
            <mxPoint x="1627.999999999999" y="909.5" as="sourcePoint" />
            <mxPoint x="1460" y="1077.5" as="targetPoint" />
            <Array as="points">
              <mxPoint x="1525" y="1078" />
            </Array>
          </mxGeometry>
        </mxCell>
        <mxCell id="0TKePO1vBAwYK1uOQbZ0-6" value="&lt;div&gt;User Login&lt;/div&gt;&lt;div&gt;Button&lt;br&gt;&lt;/div&gt;" style="rounded=1;whiteSpace=wrap;html=1;fontFamily=Verdana;" vertex="1" parent="1">
          <mxGeometry x="441" y="446.75" width="130" height="50" as="geometry" />
        </mxCell>
        <mxCell id="0TKePO1vBAwYK1uOQbZ0-7" style="edgeStyle=orthogonalEdgeStyle;rounded=0;orthogonalLoop=1;jettySize=auto;html=1;exitX=0;exitY=0.5;exitDx=0;exitDy=0;endArrow=classic;endFill=1;" edge="1" parent="1" source="0TKePO1vBAwYK1uOQbZ0-8">
          <mxGeometry relative="1" as="geometry">
            <mxPoint x="343" y="465.08333333333337" as="targetPoint" />
          </mxGeometry>
        </mxCell>
        <mxCell id="0TKePO1vBAwYK1uOQbZ0-8" value="" style="ellipse;whiteSpace=wrap;html=1;aspect=fixed;fontFamily=Verdana;" vertex="1" parent="1">
          <mxGeometry x="431" y="454.75" width="20" height="20" as="geometry" />
        </mxCell>
        <mxCell id="0TKePO1vBAwYK1uOQbZ0-9" value="Click" style="text;html=1;align=center;verticalAlign=middle;resizable=0;points=[];autosize=1;strokeColor=none;fillColor=none;fontFamily=Verdana;fontStyle=2" vertex="1" parent="1">
          <mxGeometry x="393" y="436.75" width="50" height="20" as="geometry" />
        </mxCell>
        <mxCell id="0TKePO1vBAwYK1uOQbZ0-10" value="" style="rounded=0;whiteSpace=wrap;html=1;" vertex="1" parent="1">
          <mxGeometry x="170" y="421.5" width="172" height="90.5" as="geometry" />
        </mxCell>
        <mxCell id="0TKePO1vBAwYK1uOQbZ0-11" value="&lt;div&gt;USER&lt;br&gt;&lt;/div&gt;&lt;div&gt;LANDING&lt;/div&gt;&lt;div&gt;PAGE&lt;br&gt;&lt;/div&gt;" style="text;html=1;align=center;verticalAlign=middle;resizable=0;points=[];autosize=1;strokeColor=none;fillColor=none;fontFamily=Verdana;" vertex="1" parent="1">
          <mxGeometry x="221" y="442" width="70" height="50" as="geometry" />
        </mxCell>
        <mxCell id="0TKePO1vBAwYK1uOQbZ0-14" value="&lt;div&gt;&lt;font face=&quot;Verdana&quot;&gt;Username&lt;/font&gt;&lt;/div&gt;" style="whiteSpace=wrap;html=1;fontFamily=Verdana;dashed=1;" vertex="1" parent="1">
          <mxGeometry x="1308" y="415" width="90" height="30" as="geometry" />
        </mxCell>
        <mxCell id="0TKePO1vBAwYK1uOQbZ0-15" value="" style="endArrow=none;html=1;rounded=0;fontFamily=Verdana;dashed=1;entryX=1;entryY=0.5;entryDx=0;entryDy=0;" edge="1" parent="1" target="0TKePO1vBAwYK1uOQbZ0-14">
          <mxGeometry width="50" height="50" relative="1" as="geometry">
            <mxPoint x="1518" y="430" as="sourcePoint" />
            <mxPoint x="1388.5" y="426" as="targetPoint" />
            <Array as="points">
              <mxPoint x="1498" y="430" />
            </Array>
          </mxGeometry>
        </mxCell>
        <mxCell id="0TKePO1vBAwYK1uOQbZ0-22" style="edgeStyle=orthogonalEdgeStyle;rounded=0;orthogonalLoop=1;jettySize=auto;html=1;exitX=1;exitY=0.5;exitDx=0;exitDy=0;entryX=0.25;entryY=0;entryDx=0;entryDy=0;endArrow=classic;endFill=1;" edge="1" parent="1" source="0TKePO1vBAwYK1uOQbZ0-16" target="Wz8lpyT-Ac9rhzFCjMwo-51">
          <mxGeometry relative="1" as="geometry">
            <Array as="points">
              <mxPoint x="1586" y="306" />
              <mxPoint x="1586" y="547" />
            </Array>
          </mxGeometry>
        </mxCell>
        <mxCell id="0TKePO1vBAwYK1uOQbZ0-16" value="INITIALIZATION" style="shape=parallelogram;perimeter=parallelogramPerimeter;whiteSpace=wrap;html=1;fixedSize=1;fontFamily=Verdana;" vertex="1" parent="1">
          <mxGeometry x="1445" y="280.5" width="145" height="50" as="geometry" />
        </mxCell>
        <mxCell id="0TKePO1vBAwYK1uOQbZ0-17" style="edgeStyle=orthogonalEdgeStyle;rounded=0;orthogonalLoop=1;jettySize=auto;html=1;fontFamily=Verdana;endArrow=classic;endFill=1;exitX=0.5;exitY=1;exitDx=0;exitDy=0;entryX=0.5;entryY=0;entryDx=0;entryDy=0;" edge="1" parent="1" source="0TKePO1vBAwYK1uOQbZ0-16" target="0TKePO1vBAwYK1uOQbZ0-18">
          <mxGeometry relative="1" as="geometry">
            <mxPoint x="1270" y="380" as="targetPoint" />
            <mxPoint x="1500" y="350" as="sourcePoint" />
          </mxGeometry>
        </mxCell>
        <mxCell id="0TKePO1vBAwYK1uOQbZ0-18" value="Greeter" style="rounded=1;whiteSpace=wrap;html=1;fontFamily=Verdana;" vertex="1" parent="1">
          <mxGeometry x="1460.5" y="476" width="115" height="40" as="geometry" />
        </mxCell>
        <mxCell id="0TKePO1vBAwYK1uOQbZ0-24" style="edgeStyle=orthogonalEdgeStyle;rounded=0;orthogonalLoop=1;jettySize=auto;html=1;exitX=1;exitY=0.5;exitDx=0;exitDy=0;entryX=0;entryY=0.5;entryDx=0;entryDy=0;endArrow=classic;endFill=1;" edge="1" parent="1" source="0TKePO1vBAwYK1uOQbZ0-23" target="Wz8lpyT-Ac9rhzFCjMwo-90">
          <mxGeometry relative="1" as="geometry">
            <Array as="points">
              <mxPoint x="1180" y="1001" />
              <mxPoint x="1180" y="1107" />
            </Array>
          </mxGeometry>
        </mxCell>
        <mxCell id="0TKePO1vBAwYK1uOQbZ0-27" style="edgeStyle=orthogonalEdgeStyle;rounded=0;orthogonalLoop=1;jettySize=auto;html=1;exitX=0.5;exitY=1;exitDx=0;exitDy=0;entryX=0.5;entryY=0;entryDx=0;entryDy=0;endArrow=classic;endFill=1;" edge="1" parent="1" source="0TKePO1vBAwYK1uOQbZ0-23" target="0TKePO1vBAwYK1uOQbZ0-26">
          <mxGeometry relative="1" as="geometry" />
        </mxCell>
        <mxCell id="0TKePO1vBAwYK1uOQbZ0-23" value="INITIALIZATION" style="shape=parallelogram;perimeter=parallelogramPerimeter;whiteSpace=wrap;html=1;fixedSize=1;fontFamily=Verdana;" vertex="1" parent="1">
          <mxGeometry x="1023" y="975" width="145" height="50" as="geometry" />
        </mxCell>
        <mxCell id="0TKePO1vBAwYK1uOQbZ0-26" value="Greeter" style="rounded=1;whiteSpace=wrap;html=1;fontFamily=Verdana;" vertex="1" parent="1">
          <mxGeometry x="1038" y="1110" width="115" height="40" as="geometry" />
        </mxCell>
        <mxCell id="0TKePO1vBAwYK1uOQbZ0-28" value="&lt;div&gt;&lt;font face=&quot;Verdana&quot;&gt;Username&lt;/font&gt;&lt;/div&gt;" style="whiteSpace=wrap;html=1;fontFamily=Verdana;dashed=1;" vertex="1" parent="1">
          <mxGeometry x="1210.5" y="975" width="90" height="30" as="geometry" />
        </mxCell>
        <mxCell id="0TKePO1vBAwYK1uOQbZ0-29" value="" style="endArrow=none;html=1;rounded=0;fontFamily=Verdana;dashed=1;entryX=0.5;entryY=1;entryDx=0;entryDy=0;" edge="1" parent="1" target="0TKePO1vBAwYK1uOQbZ0-28">
          <mxGeometry width="50" height="50" relative="1" as="geometry">
            <mxPoint x="1095.5" y="1065" as="sourcePoint" />
            <mxPoint x="1289" y="1021" as="targetPoint" />
            <Array as="points">
              <mxPoint x="1255.5" y="1065" />
            </Array>
          </mxGeometry>
        </mxCell>
      </root>
    </mxGraphModel>
  </diagram>
</mxfile>
